<?xml version="1.0" encoding="utf-8"?>
<!-- Generator: Adobe Illustrator 25.4.1, SVG Export Plug-In . SVG Version: 6.00 Build 0)  -->
<svg version="1.1" id="Layer_1" xmlns="http://www.w3.org/2000/svg" xmlns:xlink="http://www.w3.org/1999/xlink" x="0px" y="0px"
	 viewBox="0 0 766.5 573.3" style="enable-background:new 0 0 766.5 573.3;" xml:space="preserve">
<style type="text/css">
	.st0{fill:#000035;}
	.st1{fill:#C03B2B;}
</style>
<path class="st0" d="M701.3,191.3V351c0,4.4-3.6,8-8,8s-8-3.6-8-8v-99.9c-19.4,35.5-54.8,61.3-96,67.1V351c0,4.4-3.6,8-8,8
	s-8-3.6-8-8v-31.1c-0.5,0-0.9,0.1-1.3,0.1c-33.3,0-66.4-11.1-94.7-30.5V351c0,4.4-3.6,8-8,8s-8-3.6-8-8v-73.9
	c-11.4-9.9-21.8-21.2-30.6-33.8l-65.4-94.4V351c0,4.4-3.6,8-8,8s-8-3.6-8-8V125.9L311,70.6c-10.9-15.7-25.3-28.3-41.7-37.6v318
	c0,4.4-3.6,8-8,8s-8-3.6-8-8V25.3c-15.2-6-31.6-9.3-48.5-9.3c-10.9,0-21.4,1.7-31.5,4.2V351c0,4.4-3.6,8-8,8c-4.4,0-8-3.6-8-8V25
	c-46.8,18.1-80,62-80,113.3V351c0,4.4-3.6,8-8,8c-4.4,0-8-3.6-8-8V138.3C61.3,62,125.6,0,204.8,0c48,0,92.6,23,119.3,61.4
	l119.7,172.7c29.9,43.1,79,69.9,128.2,69.9c61.4,0,113.3-51.6,113.3-112.7c0-48.9-34.3-91.2-80-105.6V256c0,4.4-3.6,8-8,8
	s-8-3.6-8-8V83.3c0-0.6,0.5-1,0.6-1.5C584,80.9,578.1,80,572,80c-21.2,0-42.2,4.2-62.7,11.3c0,0.1,0-0.1,0,0l0,124.7
	c0,4.4-3.6,8-8,8s-8-3.6-8-8V97.6c-19.1,8.4-37.5,19.1-54.2,33.2c-3.4,2.8-8.5,2.4-11.3-1c-2.8-3.4-2.4-8.4,1-11.3
	C470.4,83.4,521.3,64,572,64C642.1,64,701.3,122.3,701.3,191.3z"/>
<g>
	<path class="st1" d="M62.2,493.3l-8.1-10c-2.5,1.1-5.2,2.1-8,2.7c-2.8,0.7-5.8,1-8.8,1c-5.3,0-10.2-1-14.7-2.8
		c-4.5-1.9-8.5-4.6-11.9-8c-3.4-3.4-6-7.5-7.9-12c-1.9-4.6-2.8-9.5-2.8-14.8c0-5.4,0.9-10.3,2.8-14.9c1.9-4.6,4.5-8.6,7.9-12
		c3.4-3.4,7.3-6.1,11.9-8c4.6-1.9,9.5-2.8,14.8-2.8c5.3,0,10.2,1,14.7,2.8c4.5,1.9,8.5,4.6,11.9,8c3.4,3.4,6,7.4,7.9,12
		c1.9,4.6,2.8,9.5,2.8,14.9c0,5.4-1,10.5-3,15.2c-2,4.7-4.7,8.7-8.2,12.1l7.5,9.4L62.2,493.3z M43.9,470.7l-7.7-9.8l8.7-7.3
		l8.2,10.3c3.1-4.1,4.6-9,4.6-14.8c0-4.1-0.8-7.8-2.4-11.2c-1.6-3.4-3.9-6.1-7-8.2c-3-2-6.7-3.1-10.9-3.1c-4.2,0-7.9,1-10.9,3.1
		c-3,2-5.4,4.8-7,8.2c-1.7,3.4-2.5,7.2-2.5,11.2s0.8,7.9,2.5,11.3c1.6,3.4,4,6.2,7,8.3c3,2.1,6.7,3.1,10.9,3.1
		c1.2,0,2.4-0.1,3.4-0.3C41.8,471.2,42.9,471,43.9,470.7z"/>
	<path class="st1" d="M86.4,458v-44.5h16.3v42.5c0,4.7,1,8.4,3.1,11.3c2,2.9,5.6,4.3,10.7,4.3c5.1,0,8.6-1.4,10.6-4.3
		c2-2.9,3-6.6,3-11.3v-42.5h16.5V458c0,5.7-1.2,10.8-3.7,15.2c-2.5,4.4-6,7.8-10.4,10.3c-4.5,2.5-9.8,3.7-16,3.7
		c-6.1,0-11.4-1.2-15.9-3.7s-8-5.9-10.5-10.3C87.6,468.8,86.4,463.7,86.4,458z"/>
	<path class="st1" d="M161.1,485.2v-71.7h49v14.2h-32.8v14h25.5v13.8h-25.5v15.5h35.2v14.3H161.1z"/>
	<path class="st1" d="M224,458v-44.5h16.3v42.5c0,4.7,1,8.4,3.1,11.3c2,2.9,5.6,4.3,10.7,4.3c5.1,0,8.6-1.4,10.6-4.3
		c2-2.9,3-6.6,3-11.3v-42.5h16.5V458c0,5.7-1.2,10.8-3.7,15.2c-2.5,4.4-6,7.8-10.4,10.3c-4.5,2.5-9.8,3.7-16,3.7
		c-6.1,0-11.4-1.2-15.9-3.7s-8-5.9-10.5-10.3C225.3,468.8,224,463.7,224,458z"/>
	<path class="st1" d="M298.8,485.2v-71.7h49v14.2H315v14h25.5v13.8H315v15.5h35.2v14.3H298.8z"/>
	<path class="st1" d="M377.7,475.1l10.4-11.3c1.9,2,4.4,4,7.5,5.9c3.1,1.9,6.8,2.9,10.9,2.9c1.6,0,3.3-0.3,4.8-0.9
		c1.6-0.6,2.9-1.5,3.9-2.7c1-1.2,1.6-2.6,1.6-4.2c0-2.7-1.3-4.7-3.9-6.2s-6.7-2.9-12.3-4.3c-5.4-1.4-10-3.8-13.6-7.2
		c-3.6-3.4-5.4-7.9-5.4-13.3c0-4,1-7.7,2.9-11c1.9-3.3,4.8-6,8.7-8.1c3.9-2,8.7-3.1,14.6-3.1c4.9,0,9,0.6,12.3,1.9
		c3.3,1.3,6,2.6,8,4.1c2,1.5,3.4,2.7,4.2,3.7l-9.4,10.3c-1.6-1.2-3.7-2.6-6.2-4.1c-2.6-1.5-5.6-2.3-9.1-2.3c-2.3,0-4.4,0.7-6.4,2
		c-2,1.3-3,2.9-3,4.8c0,2.4,1.3,4.4,3.9,5.9s6.1,2.8,10.6,3.8c3.5,0.9,6.9,2.2,10.2,3.9c3.3,1.7,5.9,4.1,8,7.2
		c2.1,3.1,3.1,7.1,3.1,12c0,4.3-1.2,8.1-3.7,11.5c-2.4,3.4-5.7,6-9.9,8c-4.2,1.9-8.8,2.9-14,2.9c-4.7,0-8.9-0.6-12.6-1.7
		c-3.7-1.1-6.8-2.6-9.6-4.5C381.9,479,379.6,477.1,377.7,475.1z"/>
	<path class="st1" d="M446.9,458v-44.5h16.3v42.5c0,4.7,1,8.4,3.1,11.3c2,2.9,5.6,4.3,10.7,4.3c5.1,0,8.6-1.4,10.6-4.3
		c2-2.9,3-6.6,3-11.3v-42.5h16.5V458c0,5.7-1.2,10.8-3.7,15.2c-2.5,4.4-6,7.8-10.4,10.3c-4.5,2.5-9.8,3.7-16,3.7
		c-6.1,0-11.4-1.2-15.9-3.7c-4.5-2.4-8-5.9-10.5-10.3C448.1,468.8,446.9,463.7,446.9,458z"/>
	<path class="st1" d="M521.6,485.2v-71.7h26.7c5.6,0,10.3,1,14,3.1c3.7,2,6.5,4.8,8.4,8.2c1.9,3.4,2.8,7.2,2.8,11.2
		c0,4.6-1,8.6-3.1,12.2c-2,3.5-4.9,6.3-8.7,8.4l15.9,28.7h-17.9l-13.3-26.3h-9v26.3H521.6z M537.4,445.8h10c3,0,5.4-0.9,7.1-2.7
		c1.7-1.8,2.6-4,2.6-6.8c0-2.9-0.9-5.3-2.6-7c-1.8-1.7-4.1-2.6-7-2.6h-10V445.8z"/>
	<path class="st1" d="M588,485.2v-71.7h48.2v14.3h-31.9V444h24.3v13.9h-24.3v27.3H588z"/>
	<path class="st1" d="M647,485.2v-71.7h49v14.2h-32.8v14h25.5v13.8h-25.5v15.5h35.2v14.3H647z"/>
	<path class="st1" d="M710.5,485.2v-71.7h26.7c5.6,0,10.3,1,14,3.1c3.7,2,6.5,4.8,8.4,8.2c1.9,3.4,2.8,7.2,2.8,11.2
		c0,4.6-1,8.6-3.1,12.2c-2,3.5-4.9,6.3-8.7,8.4l15.9,28.7h-17.9l-13.3-26.3h-9v26.3H710.5z M726.3,445.8h10c3,0,5.4-0.9,7.1-2.7
		c1.7-1.8,2.6-4,2.6-6.8c0-2.9-0.9-5.3-2.6-7c-1.8-1.7-4.1-2.6-7-2.6h-10V445.8z"/>
</g>
<g id="Coaster_4">
	<rect x="342.5" y="59.3" transform="matrix(0.8188 -0.574 0.574 0.8188 18.9986 216.7821)" class="st1" width="21" height="38"/>
</g>
<g id="Coaster_3">
	<rect x="366.6" y="93.1" transform="matrix(0.8211 -0.5708 0.5708 0.8211 3.4867 235.2777)" class="st1" width="21" height="38"/>
</g>
<g id="Coaster_3_00000084525229918343003910000007564259112105437610_">
	
		<rect x="390.7" y="126.9" transform="matrix(0.8211 -0.5708 0.5708 0.8211 -11.5201 255.1231)" class="st1" width="21" height="38"/>
</g>
<g id="Coaster_1">
	<path class="st1" d="M423.2,158.5l-17.3,12l21.8,31.3l7.1-5.2c0,0,10.5-7.2,1.3-20.4L423.2,158.5z"/>
</g>
<path d="M68.8,133.7"/>
<g>
	<path class="st0" d="M151.6,572.3l-10.7-40h6.4l7.7,32.3l8.7-31.1h5.6l8.5,31l7.7-32.2h6l-10.7,40h-6.1l-8.3-29.6l-8.6,29.6H151.6z
		"/>
	<path class="st0" d="M209.4,572.3l15.7-40h5.9l15.7,40h-6.4l-4.1-11.2h-16.4l-4.1,11.2H209.4z M221.3,556.3h13l-6.5-17.6
		L221.3,556.3z"/>
	<path class="st0" d="M269.9,572.3v-40h5.8v40H269.9z"/>
	<path class="st0" d="M314,572.3v-35h-14.3v-5H334v5h-14.3v35H314z"/>
	<path class="st0" d="M398.1,572.3v-35h-14.3v-5h34.4v5h-14.3v35H398.1z"/>
	<path class="st0" d="M442.1,572.3v-40h5.8v40H442.1z"/>
	<path class="st0" d="M474.5,572.3l1.9-40h5.5l12.2,20.8l12.2-20.8h5.4l1.9,40h-5.6l-1.3-30.7l-11.3,18.9h-2.9l-11.1-18.7l-1.4,30.5
		H474.5z"/>
	<path class="st0" d="M540.2,572.3v-40h25.2v5.1H546V549h14.6v5.2H546v13h20.9v5.2H540.2z"/>
	<path class="st0" d="M588.8,566.3l4.1-3.7c0.8,0.8,1.6,1.7,2.6,2.5c1,0.8,2.2,1.5,3.5,2.1c1.3,0.6,2.9,0.8,4.6,0.8
		c2.6,0,4.7-0.6,6.2-1.8c1.5-1.2,2.2-2.8,2.2-4.8c0-2.2-0.8-3.9-2.5-5c-1.7-1.1-4.1-2-7.3-2.6c-3.4-0.7-6.2-2-8.3-3.9
		c-2.1-1.9-3.2-4.4-3.2-7.6c0-2,0.5-3.8,1.5-5.4c1-1.7,2.5-3,4.5-4c2-1,4.5-1.5,7.4-1.5c2.6,0,4.7,0.4,6.5,1c1.7,0.7,3,1.5,4,2.4
		c1,0.9,1.6,1.6,2,2.2l-3.8,3.5c-0.3-0.4-0.9-0.9-1.6-1.6c-0.8-0.6-1.7-1.2-2.9-1.7c-1.2-0.5-2.6-0.8-4.4-0.8
		c-1.7,0-3.1,0.3-4.1,0.9c-1.1,0.6-1.9,1.3-2.4,2.2c-0.5,0.9-0.8,1.8-0.8,2.7c0,2,0.8,3.4,2.5,4.4c1.6,1,4,1.8,7,2.5
		c2,0.4,3.9,1.1,5.7,2.1c1.8,0.9,3.3,2.2,4.4,3.9c1.1,1.7,1.7,3.9,1.7,6.6c0,2.3-0.6,4.4-1.9,6.1c-1.2,1.8-2.9,3.1-5,4.2
		c-2.1,1-4.5,1.5-7.2,1.5c-2.5,0-4.7-0.4-6.6-1.1c-1.9-0.7-3.6-1.6-5-2.7C590.8,568.4,589.7,567.3,588.8,566.3z"/>
</g>
</svg>
